# Blender v3.0.0 OBJ File: ''
# www.blender.org
mtllib MoodRoller-unity.mtl
o Plane
v 5.966628 5.966630 0.009566
v 5.966628 -5.966626 0.009565
v -5.966628 -5.966626 0.009565
v -5.966628 5.966630 0.009566
v -5.966628 -5.966626 0.009565
v -5.966628 -5.966626 -0.064668
v 5.966628 5.966630 0.009566
v 5.966628 -5.966626 0.009565
v -5.966628 5.966630 0.009566
v -5.446428 5.446430 -0.064667
v -5.446428 5.446430 -0.064667
v 5.446428 5.446430 -0.064667
v 5.966628 5.966630 -0.064667
v -5.966628 5.966630 -0.064667
v 5.966628 -5.966626 -0.064668
v 5.446428 5.446430 -0.064667
v 5.446428 -5.446425 -0.064668
v -5.446428 -5.446425 -0.064668
v -5.446428 -5.446425 -0.064668
v 5.446428 -5.446425 -0.064668
v 5.446428 -5.446425 -0.103254
v -5.446428 -5.446425 -0.103254
v 5.446428 5.446430 -0.103253
v -5.446428 5.446430 -0.103253
vt 0.012025 0.013979
vt 0.012025 0.486021
vt 0.484068 0.486021
vt 0.204684 0.471683
vt 0.204684 0.033155
vt 0.161574 0.033155
vt 0.161574 0.071387
vt 0.161574 0.071387
vt 0.161574 0.071387
vt 0.161574 0.071387
vt 0.161574 0.071387
vt 0.161574 0.071387
vt 0.161574 0.071387
vt 0.161574 0.071387
vt 0.161574 0.071387
vt 0.161574 0.071387
vt 0.161574 0.071387
vt 0.247795 0.471683
vt 0.247795 0.033155
vt 0.204684 0.033155
vt 0.290905 0.471683
vt 0.290905 0.033155
vt 0.247795 0.033155
vt 0.334016 0.471683
vt 0.334016 0.033155
vt 0.290905 0.033155
vt 0.476956 0.025803
vt 0.476956 0.476135
vt 0.498462 0.497641
vt 0.026625 0.476135
vt 0.005119 0.497641
vt 0.026625 0.025803
vt 0.005119 0.004298
vt 0.498462 0.004298
vt 0.356425 0.433450
vt 0.356425 0.033155
vt 0.334016 0.033155
vt 0.161574 0.071387
vt 0.161574 0.071387
vt 0.161574 0.071387
vt 0.161574 0.071387
vt 0.161574 0.071387
vt 0.002774 0.996881
vt 0.500991 0.996882
vt 0.500991 0.498664
vt 0.401243 0.433450
vt 0.401243 0.033155
vt 0.378834 0.033155
vt 0.378834 0.433450
vt 0.378834 0.033155
vt 0.356425 0.033155
vt 0.423652 0.433450
vt 0.423652 0.033155
vt 0.401243 0.033155
vt 0.484068 0.013979
vt 0.161574 0.471683
vt 0.204684 0.471683
vt 0.247795 0.471683
vt 0.290905 0.471683
vt 0.334016 0.433450
vt 0.002774 0.498664
vt 0.378834 0.433450
vt 0.356425 0.433450
vt 0.401243 0.433450
vn 0.0000 0.0000 -1.0000
vn 1.0000 0.0000 0.0000
vn -0.3535 0.1465 -0.9239
vn 0.0000 -0.1515 -0.9885
vn 0.1464 -0.3535 -0.9239
vn 0.3535 -0.1465 -0.9239
vn -0.3535 -0.1464 -0.9239
vn 0.0000 -0.0978 -0.9952
vn 0.1465 0.3535 -0.9239
vn -0.1465 -0.3535 -0.9239
vn -1.0000 0.0000 0.0000
vn 0.0000 -1.0000 0.0000
vn 0.0000 1.0000 0.0000
vn -0.0000 -0.0000 1.0000
vn 0.0000 -0.1512 -0.9885
usemtl None
s 1
f 1/1/1 2/2/1 3/3/1
f 4/4/2 5/5/2 6/6/2
f 3/7/3 5/8/4 4/9/5
f 1/10/6 7/11/7 8/12/8
f 9/13/9 4/9/5 7/11/7
f 2/14/10 8/12/8 5/8/4
f 10/15/9 11/16/5 12/17/7
f 8/18/11 7/19/11 13/20/11
f 7/21/12 4/22/12 14/23/12
f 5/24/4 8/25/8 15/26/13
f 16/27/14 17/28/14 15/29/14
f 17/28/14 18/30/14 6/31/14
f 18/30/14 10/32/14 14/33/14
f 10/32/14 16/27/14 13/34/14
f 19/35/15 20/36/8 21/37/13
f 17/38/10 20/39/8 19/40/15
f 18/41/3 19/40/15 11/16/5
f 16/42/6 12/17/7 20/39/8
f 22/43/14 21/44/14 23/45/14
f 11/46/2 19/47/2 22/48/2
f 20/49/11 12/50/11 23/51/11
f 12/52/12 11/53/12 24/54/12
f 1/1/1 3/3/1 9/55/1
f 4/4/2 6/6/2 14/56/2
f 3/7/3 4/9/5 9/13/9
f 1/10/6 8/12/8 2/14/10
f 9/13/9 7/11/7 1/10/6
f 2/14/10 5/8/4 3/7/3
f 10/15/9 12/17/7 16/42/6
f 8/18/11 13/20/11 15/57/11
f 7/21/12 14/23/12 13/58/12
f 5/24/4 15/26/13 6/59/13
f 16/27/14 15/29/14 13/34/14
f 17/28/14 6/31/14 15/29/14
f 18/30/14 14/33/14 6/31/14
f 10/32/14 13/34/14 14/33/14
f 19/35/15 21/37/13 22/60/13
f 17/38/10 19/40/15 18/41/3
f 18/41/3 11/16/5 10/15/9
f 16/42/6 20/39/8 17/38/10
f 22/43/14 23/45/14 24/61/14
f 11/46/2 22/48/2 24/62/2
f 20/49/11 23/51/11 21/63/11
f 12/52/12 24/54/12 23/64/12
